# xmcd
#
# Track frame offsets:
#	150
#	51900
#	88596
#	134901
#	206596
#
# Disc length: 3960 seconds
#
# Revision: 1
# Processed by: cddbd v1.4PL0 Copyright (c) Steve Scherf et al.
# Submitted via: audiograbber 1.81.03
#
DISCID=490f7605
DTITLE=Mick Taylor - The Great American Music Hall - Disc 1
DYEAR=2000
DGENRE=Blues
TTITLE0=Twisted Sister
TTITLE1=Secret Affair
TTITLE2=Late At Night
TTITLE3=You Gotta Move
TTITLE4=Goin' South
EXTD=
EXTT0=
EXTT1=
EXTT2=
EXTT3=
EXTT4=
PLAYORDER=
